# xmcd
#
# Track frame offsets:
#	150
#	31812
#	63446
#	87888
#	114843
#	135007
#	154885
#	196176
#	220782
#
# Disc length: 3184 seconds
#
# Revision: 1
# Processed by: cddbd v1.5.2PL0 Copyright (c) Steve Scherf et al.
# Submitted via: audiograbber 1.83.01
#
DISCID=670c6e09
DTITLE=Eagles - Take It Easy - Live In The USA CD02
DYEAR=1900
DGENRE=Rock
TTITLE0=Hotel California
TTITLE1=Lyin Eyes
TTITLE2=Wasted Time
TTITLE3=Take It To The Limit
TTITLE4=Desperado
TTITLE5=Midnight Flyer
TTITLE6=Turn To Stone
TTITLE7=Already Gone
TTITLE8=One Of These Nights
EXTD=
EXTT0=
EXTT1=
EXTT2=
EXTT3=
EXTT4=
EXTT5=
EXTT6=
EXTT7=
EXTT8=
PLAYORDER=
